<svg version="1.1" id="Calque_1" 
	 xmlns="http://www.w3.org/2000/svg" xmlns:xlink="http://www.w3.org/1999/xlink" x="0px" y="0px" viewBox="0 0 1190.55 841.89"
	 style="enable-background:new 0 0 1190.55 841.89;" xml:space="preserve">
<style type="text/css">
	.st0{fill:#1F9ED7;}
</style>
    <g>
        <path class="st0" d="M538.14,585.46c0,67.1-0.57,134.21,0.38,201.31c0.26,18.15-6.4,25.76-25.63,30.14
            c-83.25,18.97-171.62-30.63-190.92-110.75c-4.84-20.07-14.09-27.65-35.03-32.35c-114.85-25.74-160.92-148.57-88.41-235.33
            c11.26-13.47,12.46-20.88,0.6-34.81c-51.25-60.22-45.7-143.77,11.25-197.64c54.5-51.55,146.42-57.05,211.5-12.64
            c5.29,3.61,10.28,7.68,15.88,10.8c13.31,7.41,26.54,9.71,37.32-3.78c10.06-12.59,0.64-20.96-8.28-29.08
            c-33.47-30.49-74.12-47.32-120.39-51.27c-16.93-1.45-18.48-5.5-11.75-18.82C376.8,17.95,504.07-5.05,576,58.59
            c12.57,11.12,19.99,16.85,35.62,2.27c42.32-39.48,93.76-48.95,150.48-31.58c58.37,17.88,94.68,55.36,107.23,110.91
            c3.56,15.77,8.12,23.52,26.84,26.78c117.72,20.52,169.59,144.13,97.72,232.87c-12.58,15.53-14.73,24.91-0.72,41.6
            c50.29,59.93,43.25,141.19-14.22,195.18c-53.39,50.16-143.04,56.59-206.93,14.84c-7.66-5.01-15-10.47-22.95-15.04
            c-11.62-6.7-23.29-7.58-32.59,3.5c-9.46,11.28-4.88,21.24,5.06,29.9c32.41,28.21,70.09,47.38,114.67,50.95
            c24.4,1.95,26.38,9.37,15.39,27.28c-33.39,54.42-114.14,85.13-177.56,68c-17.48-4.72-24.22-12.85-24.16-29.6
            c0.5-135.06,0.55-270.13,0.13-405.19c-0.05-16.14,6.1-21.5,23.22-20.76c23.44,1.01,46.99,0.38,70.47-0.27
            c23.29-0.64,41.06-10.97,53.69-28.95c9.61-13.69,16.32-29.91,9.59-44.5c-6.75-14.64-25.13-6.69-38.11-6.94
            c-100.5-1.95-201.04,1.99-301.56-2.44c-48.47-2.14-78.75,19.87-86.16,58.61c-3.31,17.3,0.48,25.95,22.29,25.16
            c36.6-1.33,73.38,0.92,109.93-0.91c21.17-1.06,25.3,6.49,25.1,23.89C537.68,451.24,538.14,518.35,538.14,585.46z"/>
    </g>
</svg>
